<svg width="1305" height="994" viewBox="0 0 1305 994" fill="none" xmlns="http://www.w3.org/2000/svg">
<path d="M747.087 709.025L713.624 689.705C690.058 676.099 659.848 684.194 646.242 707.76L619.565 753.967C605.959 777.534 614.053 807.743 637.62 821.349L671.082 840.669C694.649 854.275 724.858 846.18 738.464 822.614L765.142 776.407C778.788 752.77 770.654 722.632 747.087 709.025Z" fill="#6C0087"/>
<path d="M717.654 215.107L774.943 258.435C793.124 272.159 818.201 271.639 835.896 257.268C858.238 239.125 881.231 227.908 904.836 223.69C938.269 217.741 971.757 224.355 1005.22 243.675C1039.89 263.693 1062.26 288.755 1072.28 318.749C1082.26 348.814 1079.86 376.479 1065.11 402.038C1054.5 420.407 1039.03 433.88 1018.7 442.457C1005.64 447.824 970.884 454.909 914.545 463.867C858.135 472.783 816.381 486.077 789.179 503.597C761.362 521.523 740.487 547.157 722.987 574.836C707.974 598.539 715.665 629.94 740.014 643.998L774.901 664.14C797.115 676.965 825.308 670.554 840.044 649.634C850.634 634.58 860.215 624.068 868.93 618.183C883.72 608.02 911.709 599.497 952.793 592.461C1032.24 578.997 1087.57 564.049 1118.98 547.629C1150.28 531.239 1174.36 508.596 1191.09 479.619C1221.31 427.289 1225.54 368.501 1203.67 303.284C1181.87 238.109 1133.17 183.694 1057.7 140.122C985.931 98.6872 916.826 84.7051 850.198 98.1644C793.451 109.638 747.906 135.744 713.677 176.452C703.538 188.256 705.428 205.864 717.654 215.107Z" fill="#6C0087"/>
<path d="M672.699 699.99H634.059C606.847 699.99 584.732 722.105 584.732 749.317V802.672C584.732 829.884 606.847 851.999 634.059 851.999H672.699C699.911 851.999 722.025 829.884 722.025 802.672V749.317C722.025 722.024 699.911 699.99 672.699 699.99Z" fill="#CF0EFF"/>
<path d="M400.25 286.96L471.527 295.839C494.135 298.634 515.592 285.645 523.731 264.352C534.008 237.469 548.313 216.259 566.646 200.803C592.625 178.935 624.934 167.918 663.573 167.918C703.61 167.918 735.508 178.441 759.185 199.405C782.862 220.451 794.618 245.608 794.618 275.122C794.618 296.333 787.959 315.734 774.641 333.328C766.009 344.508 739.454 368.021 695.142 403.947C650.748 439.874 621.235 472.264 606.437 501.038C591.31 530.471 586.048 563.108 584.733 595.829C583.583 623.863 605.944 647.211 634.06 647.211H674.344C699.994 647.211 721.204 627.563 723.506 602.077C725.15 583.745 728.192 569.851 732.797 560.397C740.524 544.2 760.501 522.825 792.564 496.19C854.633 444.807 895.081 404.194 914.072 374.269C932.981 344.426 942.517 312.775 942.517 279.315C942.517 218.889 916.785 165.863 865.239 120.318C813.774 74.7726 744.388 52 657.244 52C574.374 52 507.536 74.4437 456.565 119.413C413.158 157.724 386.768 203.105 377.478 255.473C374.6 270.765 385.041 285.07 400.25 286.96Z" fill="#CF0EFF"/>
<path d="M580.077 714.085L546.615 733.405C523.049 747.011 514.954 777.221 528.56 800.787L555.238 846.994C568.844 870.56 599.053 878.655 622.619 865.049L656.082 845.729C679.649 832.123 687.743 801.914 674.137 778.347L647.459 732.14C633.813 708.504 603.644 700.479 580.077 714.085Z" fill="#E477FF"/>
<path d="M137.615 492.616L203.782 464.666C224.759 455.783 236.847 433.805 233.249 411.296C228.707 382.876 230.49 357.355 238.639 334.803C250.204 302.875 272.676 277.18 306.139 257.86C340.812 237.842 373.698 231.006 404.685 237.323C435.712 243.711 458.472 259.619 473.229 285.179C483.834 303.548 487.768 323.68 485.031 345.575C483.146 359.574 471.905 393.214 451.493 446.483C431.01 499.793 421.646 542.601 423.217 574.919C424.833 607.972 436.595 638.867 451.817 667.862C464.838 692.715 495.877 701.755 520.226 687.697L555.113 667.555C577.326 654.73 585.871 627.109 575.122 603.886C567.379 587.188 563.067 573.635 562.327 563.145C560.921 545.255 567.534 516.755 581.983 477.656C610.045 402.123 624.768 346.727 626.253 311.316C627.707 276.017 620.14 243.838 603.41 214.86C573.197 162.53 524.399 129.474 456.986 115.804C389.644 102.093 318.167 117.065 242.698 160.637C170.931 202.072 124.27 254.927 102.612 319.358C84.1754 374.24 84.0115 426.735 102.151 476.733C107.304 491.415 123.498 498.583 137.615 492.616Z" fill="#E477FF"/>
</svg>
